<?xml version="1.0" standalone="no"?>
<!DOCTYPE svg PUBLIC "-//W3C//DTD SVG 20010904//EN"
 "http://www.w3.org/TR/2001/REC-SVG-20010904/DTD/svg10.dtd">
<svg version="1.0" xmlns="http://www.w3.org/2000/svg"
 width="1920.000000pt" height="1920.000000pt" viewBox="0 0 1920.000000 1920.000000"
 preserveAspectRatio="xMidYMid meet">

<g transform="translate(0.000000,1920.000000) scale(0.100000,-0.100000)"
fill="#000000" stroke="none">
<path d="M3904 12245 c-91 -195 -218 -530 -289 -764 -46 -152 -125 -455 -125
-481 0 -8 56 41 125 110 113 113 126 130 140 180 69 244 183 562 289 804 36
82 66 152 66 156 0 6 -145 90 -156 90 -3 0 -25 -43 -50 -95z"/>
<path d="M2715 10390 c-396 -101 -728 -222 -1070 -390 -291 -143 -697 -390
-710 -431 -10 -29 20 -69 51 -69 14 0 63 26 112 58 472 315 1037 569 1584 712
l126 33 68 68 c51 51 63 69 49 68 -11 0 -105 -22 -210 -49z"/>
</g>
</svg>
